<?xml version="1.0" encoding="UTF-8"?>
<svg id="Layer_2" data-name="Layer 2" xmlns="http://www.w3.org/2000/svg" viewBox="0 0 1073.18 1073.18">
  <defs>
    <style>
      .cls-1 {
        fill: #fff;
      }

      .cls-2 {
        fill: none;
      }
    </style>
  </defs>
  <g id="Layer_1-2" data-name="Layer 1">
    <rect class="cls-2" width="1073.18" height="1073.18"/>
    <path class="cls-1" d="m581.59,403.28c16.25,0,32.51-.02,48.76,0,17.45.02,34.9-.19,52.34.22,14.14.33,28.28.02,42.41.39,12.48.32,24.68,2.86,36.89,5.17,35.3,6.67,70.6,13.38,105.9,20.08,21.63,4.1,43.27,8.19,64.89,12.37,2.68.52,4.92.3,7.04-1.57,2.05-1.81,4.54-3.16,6.44-5.1,3.08-3.13,6.8-3.4,10.78-3.31,1.12.02,1.78.47,2.29,1.34.61,1.03.79,2.14.81,3.33.2,9.37.18,18.75.74,28.1.3,4.94.63,9.88.49,14.82-.34,11.99-.68,23.97-1.32,35.95-.5,9.45-.96,18.89-1.25,28.35-.36,12.07-1.22,24.13-1.79,36.2-.26,5.46-.33,10.94-.49,16.4-.24,7.99-.71,15.98-.92,23.98-.29,11.24-1.02,22.48-1.31,33.73-.07,2.8-.51,5.65-.48,8.48.02,1.7-.63,2.83-2.24,3.39-3.78,1.31-7.55,2.65-11.35,3.9-.88.29-1.86.4-2.8.4-4.06.03-4.67-.43-5-4.46-.66-8.08-1.33-16.17-1.67-24.27-.11-2.8-1.37-3.72-3.72-3.94-9.51-.88-19.02-1.71-28.52-2.61-6.89-.65-13.79-1.33-20.66-2.14-1.26-.15-1.97-.07-2.52,1.11-1.53,3.33-4.39,4.21-7.79,4.2-27.55-.03-55.09-.02-82.64-.01-2.53,0-5.07-.09-7.6.05-2.69.15-3.91-.86-3.79-3.63.26-6.12-.44-12.22-.55-18.33-.04-2.25-.75-3.69-2.63-4.92-10.91-7.18-21.73-14.51-32.65-21.67-3.59-2.35-7.67-3.37-11.99-3.37h-154.98c-74.83,0-149.66,0-224.49-.01-4.99,0-9.48,1.37-13.65,4.18-11.44,7.71-22.96,15.32-34.5,22.89-1.6,1.05-2.24,2.25-2.28,4.13-.12,5.8-.49,11.59-.57,17.39-.04,2.45-.98,3.36-3.4,3.35-30.5-.05-61-.03-91.5-.07-2.74,0-5.24-.75-6.45-3.63-.63-1.49-1.96-1.48-3.22-1.37-5.23.46-10.45.97-15.67,1.49-7.52.75-15.03,1.52-22.54,2.29-3.23.33-6.45.79-9.69,1.04-2.2.16-2.63,1.28-2.76,3.3-.59,8.7-.77,17.42-1.71,26.1-.25,2.29-1.18,2.87-3.09,2.94-5.86.21-10.71-2.76-15.75-5.08-1.21-.55-1.37-2.05-1.3-3.36.41-8.54-.58-17.04-.75-25.57-.25-12.51-.86-25.02-1.28-37.53-.37-10.93-.85-21.85-1.24-32.78-.42-11.88-.83-23.76-1.28-35.63-.41-10.93-.68-21.87-1.3-32.78-.62-10.86-.51-21.7-.42-32.54.08-10.09.79-20.17,1.2-30.25.09-2.11,1.08-2.63,3.19-2.88,4.84-.57,8.45,1.42,11.38,4.79,4.3,4.94,9.03,5.79,15.58,4.47,36.25-7.28,72.62-14.01,108.96-20.86,25.78-4.87,51.56-9.73,77.38-14.4,8.52-1.54,17.18-1.76,25.84-1.72,10.87.05,21.73-.04,32.6-.29,14.29-.34,28.6-.2,42.9-.2,46.83-.02,93.65,0,140.48,0h10.24Zm-250.42,184.45c-64.71-48.22-128.67-95.89-192.88-143.73-.3,2.11-.71,3.77-.74,5.43-.22,16.11.28,32.23-.6,48.35-.23,4.28.04,8.61.06,12.92.12,31.62-1.34,63.22-1.41,94.84-.01,5.59.23,11.19-.08,16.76-.22,3.88-.68,7.75-.48,11.65.08,1.68.39,2.73,2.65,2.16,54.38-13.64,108.77-27.21,163.16-40.8,9.8-2.45,19.59-4.9,30.32-7.58Zm602.59-143.19c-.33-.12-.66-.23-1-.35-63.87,47.66-127.74,95.31-192.2,143.41,1.92.55,2.91.86,3.92,1.11,62.99,15.74,125.99,31.47,188.97,47.26,2.26.57,2.97.19,2.88-2.22-.39-11.16.14-22.31-.53-33.49-.83-13.76.17-27.58-.68-41.39-.79-12.82.09-25.68-.58-38.55-.79-15.12-.62-30.29-.76-45.44-.1-10.11-.02-20.23-.02-30.34Zm-2.51-.83c-1.44-.11-1.93-.19-2.43-.19-57.5,0-114.99-.01-172.49.03-3.05,0-6.08.53-8.9,1.87-1.65.79-2.51,1.89-2.7,3.86-.84,8.69-2.01,17.36-2.82,26.06-1.2,12.88-3.27,25.67-2.99,38.71.38,17.6.17,35.22.24,52.83,0,2.32.3,4.63.31,6.94,0,2.61.83,2.94,2.92,1.46,5.67-4.04,11.4-7.99,17.11-11.97,45.52-31.69,91.03-63.37,136.55-95.06,11.47-7.98,22.92-15.98,35.19-24.54Zm-599.29,133.43c.1-1.37.2-2.08.2-2.79.17-20.57-.29-41.14.64-61.7.37-8.28-1.1-16.37-1.94-24.52-1.35-13.2-2.94-26.37-4.34-39.56-.18-1.66-1.14-2.41-2.39-3.02-3.4-1.66-7.06-2.03-10.77-2.03-56.46,0-112.92,0-169.39.02-1.01,0-2.08-.32-3.34.48,63.7,44.32,127.25,88.54,191.33,133.13Zm25.81.73c-3.86,1.78-7.75,2.56-11.44,3.87-1.16.41-3.33.27-3.07,1.9.2,1.28,2.2.69,3.39.69,26.17.03,52.33.02,78.5.02,48.74,0,97.49,0,146.23-.02,1.74,0,4.12.74,4.1-2.41-.02-3.19-2.45-2.26-4.15-2.33-10.43-.45-20.85-.85-31.28-1.24-23.07-.86-46.14-1.74-69.21-2.56-14.86-.53-29.72-.78-44.57-1.5-6.11-.3-12.22-.34-18.33-.6-18.41-.81-36.84-1.45-55.24-2.44-3.97-.21-6.48,1.35-9.02,4-1.74,1.82-.43,3.43-.07,4.86.37,1.49,1.99.29,2.97.03,2.65-.69,5.24-1.59,7.87-2.37.95-.28,1.9-.94,3.34.09Zm386.84,12.37c-.08.19-.15.38-.23.57.41.31.8.64,1.23.92,14.33,9.5,28.69,18.95,42.97,28.52,2.48,1.66,5.11,2.32,7.98,2.58,11.64,1.09,23.27,2.21,34.9,3.37,13.72,1.37,27.44,2.82,41.16,4.21,12.15,1.23,24.31,2.42,36.47,3.62,5.25.52,10.5,1,15.75,1.5.02-.13.04-.25.05-.38-60.1-14.97-120.19-29.94-180.29-44.92Zm-417.54.74c-.08-.25-.17-.5-.25-.75-59.97,14.97-119.94,29.94-179.91,44.91,6.22-.22,12.35-.9,18.5-1.51,15.83-1.55,31.66-3.02,47.48-4.6,17.92-1.79,35.8-4.05,53.76-5.36,8.92-.65,16.6-2.97,23.92-8.26,11.87-8.56,24.31-16.34,36.5-24.45Zm23.21-22c8.11,0,16.01.22,23.89-.04,20.54-.7,41.07-1.62,61.6-2.45,11.16-.45,22.33-.85,33.49-1.33,18.74-.79,37.48-1.66,56.22-2.42,12.64-.51,25.28-.89,37.92-1.36,3.16-.12,6.31-.4,9.47-.55,1.37-.07,2.56-.19,2.59-1.98.03-1.75-1.03-2.11-2.47-2.08-.95.02-1.9,0-2.85,0-37.55,0-75.1,0-112.66,0-30.48,0-60.97,0-91.45.01-1.54,0-3.23-.42-4.52.87-3.78,3.79-7.53,7.6-11.22,11.33Zm13.81-14.43c2.23.98,3.61.7,4.95.7,66.98.02,133.95.01,200.93.01.84,0,1.69,0,2.53,0,1.4-.03,2.85.04,2.95-1.97.12-2.19-1.38-2.25-2.93-2.32-12.95-.59-25.89-1.22-38.84-1.79-11.69-.51-23.38-.91-35.06-1.44-21.26-.96-42.52-2.02-63.78-2.96-12.74-.56-25.49-.81-38.22-1.53-4.4-.25-8.82-.17-13.22-.88-2.28-.37-5.13-1.1-7.05.53-4.15,3.54-7.94,7.5-12.26,11.65Zm28.75-27.93h3.92c57.37,0,114.74-.03,172.11.07,3.14,0,5.03-.78,5.65-3.92-6.59-1.19-13.26-.89-19.87-1.34-16.08-1.09-32.18-1.79-48.28-2.59-22.62-1.12-45.25-2.07-67.86-3.35-8.4-.48-16.82-.61-25.2-1.61-2.79-.33-6.14-1.33-8.54.83-3.98,3.57-7.6,7.55-11.93,11.91Zm-13.97,14.3c.48.07.88.22,1.25.17,8.68-1.21,17.44-1.1,26.16-1.61,18.2-1.07,36.41-1.78,54.62-2.64,17.68-.83,35.36-1.69,53.04-2.5,19.47-.9,38.95-1.76,58.42-2.66,1.29-.06,3.05.37,3-1.78-.04-2.06-1.76-1.76-3.07-1.78-4.64-.04-9.28-.02-13.92-.02-54.43,0-108.86,0-163.29.01-1.55,0-3.33-.49-4.56.74-3.91,3.92-7.71,7.95-11.66,12.06Zm333.92,36.99c1.27-1.08,1.99-.38,2.68-.06,3.73,1.74,7.42,3.55,11.14,5.3.58.27,1.59,1.21,1.77.11.38-2.34,1.2-5.32.16-7.03-1.69-2.78-4.13-5.05-8.39-5.04-46.42.19-92.85.12-139.27.12-.63,0-1.27.05-1.9,0-2.71-.24-2.77,1.54-2.76,3.48.02,1.97-.14,3.68,2.81,3.79,21.18.74,42.34,1.67,63.52,2.44,14.86.55,29.73.72,44.57,1.51,7.37.4,14.75.21,22.12.91,4.61.44,9.29.08,14.86.08-4.27-2.12-7.69-3.82-11.3-5.62Zm9.15-8.85c-3.02-2.94-6.1-5.63-8.81-8.66-2.43-2.73-5.04-4.09-8.8-3.7-2.91.3-5.86.48-8.79.63-14.21.74-28.42,1.3-42.63,1.84-19.17.73-38.34,1.28-57.5,2.12-5.27.23-10.52.53-15.8.58-1.39.01-2.75.04-3.26,1.8-1.22,4.24.11,6.11,4.47,6.11,45.78,0,91.56,0,137.33-.02,1.1,0,2.29.36,3.78-.7Zm-374.62-4.78c.34-1.64.54-2.34.63-3.06,1.13-8.87,2.19-17.75,3.36-26.61,3.22-24.19,6.47-48.37,9.75-72.55.19-1.37-.15-2.13-1.54-2.02-7.68.62-15.38.35-23.08.54-1.53.04-1.99.73-1.81,2.22,1.92,15.24,3.8,30.48,5.71,45.73,2.28,18.27,4.57,36.53,6.97,55.76Zm376.68-.97c.12.02.25.03.37.05,1.19-9.6,2.4-19.2,3.57-28.8,1.57-12.96,3.08-25.93,4.66-38.89,1.33-10.87,2.73-21.73,4.11-32.59.2-1.55.11-2.5-1.94-1.7-1.57.61-3.2,1.42-5.05,1.12.11-1.45,1.63-.98,2.25-2.46-6.68,0-13.1.1-19.52-.06-2.26-.06-2.02.99-1.82,2.5.91,6.68,1.74,13.36,2.63,20.04,3.58,26.93,7.16,53.86,10.74,80.78Zm-16.84-8.92c-3.34-3.28-6.73-6.45-9.9-9.81-1.66-1.76-3.44-2.4-5.84-2.4-36.82.06-73.64.04-110.46.05-4.08,0-4.19.29-4.24,4.25-.05,3.98,2.96,3.34,5.11,3.45,15.16.76,30.32,1.38,45.49,2,12.64.51,25.28.91,37.92,1.44,6.11.25,12.2.85,18.31.99,7.76.18,15.53.04,23.62.04Zm-298.32-42.37c1,0,2.67.09,4.33-.01,8.73-.55,17.45-1.2,26.18-1.71,22.3-1.31,44.61-2.59,66.92-3.84,16.73-.93,33.47-1.75,50.2-2.68,5.58-.31,11.14-.77,16.71-1.17.94-.07,2.08-.03,2.13-1.34.06-1.54-1.2-1.48-2.25-1.53-.95-.04-1.9-.02-2.85-.02-22.58,0-45.17,0-67.75,0-26.28,0-52.55,0-78.83,0-1.66,0-3.44-.33-4.75,1.13-3.39,3.76-6.77,7.52-10.04,11.16Zm13.58-13.86h3.51c48.23,0,96.46,0,144.69,0,.74,0,1.48.01,2.22-.01,1.16-.04,2.48.09,2.59-1.59.11-1.64-1.08-1.81-2.31-1.89-5.57-.39-11.14-.84-16.71-1.19-11.46-.73-22.93-1.38-34.4-2.12-14.62-.95-29.23-1.97-43.84-2.94-12.3-.82-24.6-1.67-36.91-2.39-2.57-.15-5.63-1.27-7.67.55-3.89,3.47-7.28,7.49-11.16,11.59Zm270.44,42.3c-3.88-4.22-7.92-8.17-12.22-11.84-.88-.75-2.17-.78-3.34-.71-18.09.95-36.18,1.96-54.28,2.86-14.53.72-29.06,1.31-43.59,1.97-.83.04-1.9-.13-2.24.79-.79,2.13-.79,4.44-.11,6.51.58,1.78,2.56,1.06,3.93,1.06,36.08.03,72.17.03,108.25,0,1.1,0,2.31.38,3.59-.65Zm246.25-92.89c-.21.05-.43.1-.64.14.93,58.1,1.87,116.21,2.79,173.53.61-7.72,1.32-16.22,1.96-24.72,1.49-19.83,2.95-39.67,4.43-59.51,1.45-19.4,2.91-38.81,4.37-58.21.08-1.07-.1-2.03-.56-3.04-2.56-5.66-5.02-11.37-7.51-17.06-1.62-3.71-3.23-7.43-4.84-11.14Zm-503.06,36.48c1.39.07,2.21.15,3.03.15,44.22.01,88.43.02,132.65.02.84,0,1.74.1,2.51-.14,1.56-.5,1.53-1.62.6-2.68-.69-.78-1.77-.52-2.7-.58-7.25-.49-14.51-.95-21.76-1.47-13.45-.97-26.9-1.98-40.34-2.98-10.3-.77-20.59-1.58-30.88-2.34-9.46-.7-18.91-1.38-28.37-2.05-1.38-.1-2.7-.05-3.8,1.08-3.45,3.54-6.96,7.03-10.92,11.01Zm-59.69,52.67c.32-.91.48-1.2.53-1.5,4.14-24.39,8.25-48.79,12.46-73.17.36-2.06-.58-2.11-1.99-2.11-7.28,0-14.56.05-21.84-.02-2.17-.02-2.78.84-2.4,2.9,4.4,24.45,8.77,48.91,13.24,73.91Zm318.49-.94c.19,0,.38,0,.57,0,1.26-7.1,2.51-14.21,3.77-21.31,3.03-17.1,6.03-34.2,9.1-51.29.42-2.34.03-3.4-2.75-3.32-6.85.19-13.71.12-20.56,0-2.33-.04-3.07.32-2.6,2.96,2.78,15.54,5.34,31.11,7.98,46.68,1.49,8.76,3,17.53,4.5,26.29Zm-561.96-87.33c-.2-.03-.4-.07-.61-.1-3.69,9.28-7.39,18.57-11.05,27.86-.19.47-.19,1.04-.17,1.56.23,5.35.19,10.74.79,16.05,1.21,10.57,1.59,21.19,2.34,31.78.75,10.61,1.35,21.22,2.05,31.83,1,15.13,2.02,30.25,3.05,45.38.28,4.2.61,8.39.91,12.59.12-.02.24-.03.36-.05.78-55.63,1.55-111.27,2.33-166.9Zm545.28,78.05c-4.02-4.17-7.73-8.03-11.45-11.88-1-1.03-2.3-.89-3.56-.9-27.62,0-55.23.01-82.85-.03-2.22,0-3.66.33-3.56,3.05.09,2.44-.1,4.65,3.37,4.8,13.36.57,26.71,1.24,40.06,1.93,10.83.55,21.65,1.19,32.48,1.77,8.38.44,16.76.83,25.51,1.26Zm-522.71-84.19s0,.07,0,.11h3.35c50.13,0,100.25,0,150.38,0q7.55,0,6.74-7.57c-.02-.21-.03-.42-.04-.63-.04-1.88-1.12-2.19-2.76-2.06-7.55.62-15.11,1.25-22.68,1.73-11.67.74-23.36,1.3-35.03,2.05-18.19,1.17-36.38,2.46-54.57,3.63-15.13.97-30.27,1.83-45.41,2.73Zm760.42.11c-10.08-.7-20.06-1.42-30.05-2.07-20.09-1.29-40.17-2.57-60.26-3.8-21.46-1.32-42.92-2.61-64.38-3.88-5.77-.34-5.77-.3-5.81,5.47q-.03,4.27,4.45,4.28c32.82,0,65.64,0,98.46,0h57.59Zm-252.73,69.79c.12-.26.24-.51.35-.77-2.89-2.88-5.93-5.63-8.63-8.68-2.08-2.36-4.41-3.2-7.49-2.98-9.76.71-19.54,1.3-29.31,1.85-12.72.71-25.44,1.34-38.16,2-1.06.06-2.32.03-2.73,1.17-.72,2.02-.77,4.24-.09,6.21.67,1.94,2.73,1.16,4.2,1.17,26.25.04,52.49.03,78.74.03,1.04,0,2.08,0,3.12,0Zm259.9-70.8c-.88-.35-1.06-.46-1.25-.5-22.01-4.21-44.02-8.45-66.05-12.59-4.02-.76-7.97-2.14-12.14-1.86-7.98.54-15.96,1.22-23.95,1.72-17.76,1.12-35.53,2.16-54.22,3.29,52.92,3.34,104.91,6.62,157.6,9.94Zm-774-.44c-.02.13-.04.27-.06.4,51.93-3.28,103.85-6.55,155.78-9.83-14.5-1-29.01-1.83-43.51-2.74-7.88-.5-15.75-1.18-23.63-1.69-4.4-.28-8.97-1.17-13.21-.41-25.16,4.53-50.25,9.47-75.37,14.27Zm366.6,29.37c19.08,0,38.17.01,57.25-.03.91,0,2.53.6,2.56-.89.02-1.26-1.56-1.14-2.56-1.2-6.83-.47-13.66-.88-20.49-1.33-10.4-.69-20.8-1.38-31.2-2.1-13.86-.97-27.72-1.97-41.58-2.96-7.67-.55-15.35-.9-22.99-1.71-7.64-.81-7.73-.79-7.81,6.78-.03,3.01,1.31,4.03,3.92,3.96,2.83-.07,5.66-.49,8.48-.5,18.14-.05,36.27-.02,54.41-.03Zm59.98-12.8c-.76-1.39-2.19-1.19-3.33-1.28-4.1-.34-8.2-.51-12.31-.75-11.36-.69-22.73-1.36-34.09-2.08-15.46-.98-30.92-1.99-46.37-3.02-8.31-.55-16.62-1.09-24.91-1.78-6.09-.51-6.33-.3-6.19,5.87.06,2.78.99,3.84,3.95,3.83,40-.09,80-.05,120-.08,1.07,0,2.33.48,3.26-.7Zm-.02-33.54c-.47-1.21-1.6-.96-2.44-1.02-3.47-.26-6.94-.37-10.41-.58-16.82-.99-33.65-2-50.47-2.98-8.83-.51-17.67-.96-26.51-1.47-12.93-.75-25.86-1.62-38.8-2.27-5.54-.28-5.51-.1-3.87,5.23.68,2.21,1.22,3.89,4.3,3.89,41.77-.11,83.54-.07,125.3-.1.97,0,2.13.45,2.88-.69Zm.13-10.98c-2.27-1.11-4.65-1.07-7-1.18-14.1-.7-28.21-1.35-42.31-2.09-18.52-.97-37.03-2.01-55.54-3.02-9.15-.5-18.32-.84-27.46-1.5-6.33-.46-6.26-.67-3.9,5.31.83,2.12,1.67,3.5,4.42,3.49,42.93-.1,85.87-.07,128.8-.11.96,0,2.13.46,3-.91Zm-171.33,128.12c56.18,0,111.86-.02,167.54.05,2.79,0,3.91-.91,3.59-3.65-.09-.73-.05-1.48-.01-2.21.08-1.59-.53-2.25-2.23-2.17-8,.36-16.01.56-24.01.93-17.15.78-34.3,1.64-51.45,2.46-9.68.46-19.36.86-29.04,1.34-21.25,1.06-42.5,2.15-64.37,3.26Zm171.3-95.21c-2.29-1.03-4.66-1.04-7.02-1.18-11.89-.69-23.78-1.33-35.67-2.09-14.72-.94-29.44-2.01-44.16-2.95-11.78-.75-23.57-1.31-35.35-2.09-6.42-.42-6.32-.56-5.76,5.85.22,2.5,1.13,3.44,3.72,3.44,40.42-.06,80.84-.03,121.27-.05.96,0,2.13.47,2.97-.94Zm-186.73,123.68c.94.12,1.15.17,1.36.17,60.56,0,121.12-.01,181.68.07,3.27,0,3.49-1.57,3.54-4.1.05-2.67-.97-3.5-3.56-3.37-10.42.51-20.85.87-31.28,1.29-15.06.61-30.12,1.22-45.18,1.83-21.91.88-43.82,1.76-65.73,2.61-13.37.52-26.75.98-40.83,1.49Zm186.62-134.66c-.27-1.01-.97-.92-1.58-.96-17.46-1.07-34.92-2.13-52.37-3.19-11.68-.7-23.35-1.37-35.03-2.07-12.83-.77-25.66-1.5-38.48-2.41-3.03-.22-3.44.96-2.73,3.41.23.81.46,1.64.53,2.47.24,2.91,1.96,3.99,4.67,3.87,3.26-.15,6.51-.49,9.76-.49,37.03-.04,74.07-.02,111.1-.05,1.38,0,2.91.46,4.13-.59Zm-188.57,136.39c16.57.69,33.72,1.54,50.87,2.07,22.87.72,45.73,1.58,68.6,2.55,15.07.64,30.15.8,45.21,1.53,6.43.31,12.87.16,19.28.71,4.48.38,4.62.18,4.54-4.18-.06-3.31-2.3-2.67-4.2-2.67-60.47-.02-120.94-.01-181.41-.01h-2.89Zm18.12-61.91c.32-.37.51-.5.55-.66,3.97-15.51,7.92-31.02,11.92-46.53.57-2.23-.56-2.45-2.32-2.43-6.96.07-13.93.18-20.89.04-2.83-.06-2.86,1.13-2.24,3.25,1.72,5.97,3.35,11.97,5.03,17.96,2.63,9.4,5.27,18.8,7.96,28.37Zm260.86.06c.35-.43.53-.56.58-.73,4.29-15.43,8.56-30.87,12.88-46.29.63-2.25-.48-2.53-2.25-2.54-7.07-.01-14.14,0-21.21-.14-2.23-.04-2.67.57-2.09,2.76,2.7,10.07,5.24,20.19,7.83,30.3,1.4,5.47,2.8,10.94,4.25,16.64Zm70.79-35.85c-.77,5.8-1.46,10.75-2.07,15.72-2.96,24.13-5.68,48.3-8.98,72.38-.87,6.31-.27,11.22,5.27,14.88.86.57,1.49,1.49,2.26,2.21,1.82,1.7,4.13,1.04,4.68-1.39.2-.91.11-1.89.1-2.84-.18-14.44-.38-28.88-.54-43.33-.05-4.31,0-8.62,0-12.94-.07,0-.15,0-.22,0-1.98,18.1-3.96,36.21-5.96,54.59-1.22-.57-1.24-1.09-1.19-1.6,1.08-10.05,2.11-20.1,3.27-30.14,1.33-11.5,2.81-22.99,3.81-34.5.93-10.66.48-21.47-.41-33.06Zm-328.96,68.61c19.04.89,38.61,1.87,58.18,2.71,17.58.76,35.17,1.24,52.74,2.13,5.47.28,10.95.36,16.42.64,12.31.63,24.62,1.11,36.93,1.73,2.38.12,3.47-.59,3.43-3.16-.07-3.84-.13-4.06-4.09-4.06-54.1,0-108.2,0-162.3,0h-1.32Zm241.06-44.24c-3.45-3.71-6.93-7.48-10.45-11.21-.76-.81-1.82-1-2.92-1-18.66,0-37.33.02-55.99-.03-2.37,0-2.88,1.25-2.74,3.21.14,1.98-.68,4.5,2.64,4.71,10.3.64,20.6,1.28,30.9,1.94,9.04.58,18.06,1.31,27.11,1.73,3.92.18,7.82,1.45,11.45.65Zm-213.06,13.96c.04.09.08.18.12.27,16.13,0,32.26,0,48.39,0,29.1,0,58.2,0,87.31,0,3.73,0,3.77-.25,3.94-4.29.12-2.91-.9-3.92-3.83-3.73-8.62.57-17.25.87-25.87,1.38-19.87,1.18-39.73,2.47-59.59,3.63-16.81.98-33.64,1.84-50.45,2.75Zm272.97,42.71v-86.69c-4.26,24.01-8.44,47.63-12.64,71.25-.23,1.31-.12,2.45.9,3.48,3.71,3.72,7.37,7.5,11.73,11.96Zm-360.34,12.99c.22.14.44.28.66.42,3.44-3.51,6.84-7.05,10.35-10.49,1.31-1.28,1.84-2.66,1.82-4.48-.06-8.33-.03-16.65-.03-24.98,0-19.1,0-38.19,0-57.29-.07,0-.13,0-.2,0-4.2,32.28-8.4,64.55-12.6,96.83Zm84.99-53.91c-.02.34-.05.68-.07,1.02,6.95,0,13.91-.26,20.84.05,19.47.87,38.92,1.99,58.38,3,9.36.49,18.73.97,28.09,1.47,10.52.55,21.04,1.06,31.55,1.71,2.83.17,3.37-1.16,3.34-3.59-.03-2.31-.31-3.72-3.24-3.71-46.3.07-92.59.05-138.89.05Zm-70.44-43.66v83.08c.29.19.59.38.88.57,2.94-3.12,5.68-6.46,8.88-9.28,2.49-2.2,2.84-4.45,2.26-7.51-2.18-11.46-4.15-22.97-6.21-34.46-1.9-10.63-3.82-21.26-5.82-32.4Zm359.33,97.73c.24-.13.48-.27.72-.4-4.1-31.17-8.2-62.34-12.36-93.98-.19.59-.25.69-.25.79-.02,26.76-.03,53.51-.06,80.27,0,.76,0,1.47.59,2.04,3.79,3.76,7.57,7.52,11.36,11.28Zm-87.44-83.93c-3.25-3.38-6.47-6.64-9.58-10-1.33-1.43-2.81-1.95-4.75-1.94-13.38.04-26.76.02-40.13-.03-2.1,0-3.9.1-3.63,2.93.2,2.21-.99,4.9,3.07,5.17,15.95,1.06,31.88,2.42,47.83,3.53,2.34.16,4.65,1.42,7.2.35Zm-173.63,1.91c-.04.18-.08.35-.12.53,2.1,0,4.21-.11,6.3.02,15.34.97,30.67,1.99,46.01,2.98,7.88.51,15.76,1,23.64,1.51,11.66.75,23.32,1.48,34.98,2.31,2.63.19,3.59-.78,3.53-3.4-.06-2.37-.21-4-3.33-4-37,.07-74,.05-111.01.05Zm9.45-13.86c0,.07,0,.13.01.2,10.4.72,20.79,1.41,31.19,2.18,13.02.96,26.03,1.99,39.05,2.96,10.5.78,21.01,1.43,31.5,2.31,2.25.19,3.41-.35,3.03-2.57-.32-1.89,2.06-5.13-2.61-5.12-34.06.07-68.11.04-102.17.04Zm135.02-67.07c-8.33,0-16.67,0-25,0-1.84,0-3.87-.48-3.96,2.59-.08,2.63.96,3.55,3.44,3.66,5.58.24,11.15.64,16.72.95,8.63.47,17.29.61,25.88,1.47,7.66.76,7.53,1.07,10.32-5.89,1.01-2.51.18-2.84-2.07-2.82-8.44.08-16.88.03-25.32.03Zm-484.62,113.39s-.06,0-.1,0c0,.71,0,1.42,0,2.13,0,23.72,0,47.43.01,71.15,0,22.76,0,45.51.01,68.27,0,2.04-.56,4.46,2.9,4.32,3.48-.14,2.35-2.73,2.3-4.42-.24-7.89-.74-15.78-1.03-23.67-.91-24.52-1.78-49.05-2.64-73.57-.51-14.73-.98-29.47-1.46-44.2Zm213.51-44.37c-.14,0-.29.02-.43.02,0,6.96.05,13.92-.02,20.88-.04,3.69-.75,7.39-.21,11.05,1.82,12.4,2.9,24.89,4.28,37.33,1.08,9.73,2.11,19.47,3.19,29.2.08.74.13,2.31,1.16,1.61,1.72-1.17,4.06-2.35,3.82-4.97-.5-5.24-1.22-10.46-1.88-15.68-1.59-12.75-3.2-25.49-4.79-38.24-1.71-13.74-3.42-27.48-5.12-41.21Zm265.91-14.15v.03c-6.74,0-13.49.02-20.23-.01-1.98,0-3.63.16-3.51,2.79.1,2.24-.64,4.62,3.12,4.83,11.76.65,23.51,1.59,35.26,2.39,7.89.54,7.83.52,7.66-7.4-.04-2-.54-2.74-2.71-2.69-6.53.15-13.06.06-19.6.06Zm-480.96,158.83c0-16.85.01-42.89,0-68.94-.01-17.72-.11-35.44-.06-53.16.01-5.26.88-10.5.21-15.77-.24-1.9-.68-3.19-3.04-3.02-2.55.18-2.08,1.94-2.03,3.44.37,10.64.78,21.27,1.18,31.91.63,16.96,1.27,33.91,1.87,50.87.75,21.27,1.45,42.55,1.87,54.68Zm712.67-194.34c.02-.11.04-.23.06-.34-23.24-4.42-46.47-8.86-69.71-13.26-7.23-1.37-7.17-1.32-7.15,6.26,0,1.91.62,2.67,2.47,2.75,4.2.18,8.41.43,12.61.67,8.4.49,16.81.96,25.21,1.5,12.17.78,24.35,1.61,36.52,2.41Zm-440.5,42.48v58.16c.28.13.55.25.83.38,3.74-3.84,7.45-7.7,11.22-11.51.95-.96.57-1.9.28-2.91-1.71-6.08-3.41-12.17-5.11-18.25-2.4-8.59-4.8-17.18-7.23-25.86Zm-152.79-42.85c-.01.1-.03.2-.04.29,4.83-.25,9.67-.43,14.5-.75,18.16-1.19,36.32-2.41,54.48-3.67,2.49-.17,5.6.98,7.32-.82,1.69-1.77.15-4.85.61-7.3.38-2.01-.24-2.26-2.15-1.9-24.9,4.76-49.81,9.44-74.71,14.13Zm594.64,1.93c-5.38-.42-10.62-.91-15.88-1.23-18.61-1.13-37.23-2.2-55.84-3.31-6.6-.39-6.5-.41-6.48,6.13,0,2.59,1.03,3.29,3.42,3.12,4.94-.35,9.89-.47,14.83-.79,19.97-1.29,39.94-2.61,59.94-3.93Zm114.18,188.69c.13.02.26.04.4.05.48-6.61.94-13.22,1.43-19.83.68-9.24,1.35-18.48,2.06-27.72.98-12.8,1.99-25.61,2.98-38.41.78-10.08,1.55-20.15,2.34-30.23.47-5.96.95-11.92,1.45-17.88.17-2.01-.61-2.85-2.71-2.81-1.91.03-2.54.75-2.61,2.63-.35,9.79-.85,19.57-1.21,29.36-.51,13.69-.78,27.39-1.49,41.06-.3,5.79-.36,11.58-.63,17.37-.71,15.46-1.34,30.93-2,46.4ZM237.59,425.68c0,.06,0,.12.01.19,9.05.52,18.1.99,27.14,1.57,14.83.95,29.64,2.14,44.48,2.89,7.05.36,6.63,1.58,6.64-6.69,0-2.42-.9-2.98-3.26-2.81-15.24,1.09-30.49,2.03-45.74,3.01-9.76.63-19.52,1.23-29.27,1.85Zm365.94-10.3c-7.7,0-15.39,0-23.09,0-1.91,0-3.53.04-3.63,2.71-.1,2.51.73,3.71,3.29,3.82,5.78.26,11.57.6,17.35.94,7.46.44,14.96.61,22.37,1.45,7.26.83,7.22,1.06,9.31-5.61.82-2.61.11-3.38-2.51-3.34-7.7.1-15.39.03-23.09.03Zm76.42,50.54c-4.08,14.8-8.25,29.9-12.41,45-.25.92-.49,1.84.32,2.66,3.74,3.8,7.46,7.61,11.19,11.41.3-.14.6-.27.9-.41v-58.67Zm2.33,4.32c-.25.02-.5.03-.75.05,0,1.13,0,2.27,0,3.4-.03,15.6.12,31.2-.18,46.8-.09,4.69.91,8.28,4.67,11.26,2.62,2.07,4.81,4.68,7.2,7.05.21-.16.43-.33.64-.49-3.86-22.69-7.71-45.38-11.57-68.07Zm-81.42-33.1v-.02c-6.96,0-13.93-.01-20.89.01-1.21,0-2.56-.29-3.05,1.48-1,3.62.22,5.48,3.97,5.68,5.05.28,10.12.31,15.15.79,6.91.66,13.87.62,20.77,1.69,6.05.94,6.68.11,7.33-5.94.3-2.82-.25-3.88-3.35-3.77-6.64.24-13.29.07-19.94.07Zm354.98,86.32c.19,0,.38,0,.57,0-.73,10.14-1.42,20.28-2.19,30.41-.95,12.59-1.99,25.18-2.95,37.77-.74,9.76-1.38,19.53-2.1,29.29-.98,13.21-2,26.42-3.01,39.63-.13,1.73-.43,3.45,2.24,3.53,2.65.08,2.44-1.68,2.51-3.38.46-11.37.91-22.73,1.39-34.09.78-18.72,1.56-37.44,2.37-56.16.35-8.1.92-16.19,1.13-24.3.19-7.56.04-15.12.04-22.69Zm-481.99-63.72c.03.1.07.21.1.31,11.14.73,22.28,1.44,33.42,2.2,14.19.97,28.37,2,42.55,3,7.25.51,14.51.93,21.75,1.58,4.2.38,4.44.19,4.46-4.01.02-2.98-1.68-3.1-3.89-3.1-32.28.03-64.57.02-96.85.02-.52,0-1.03,0-1.55,0Zm-96.24,79.63c3.96-3.8,7.31-7.12,10.78-10.29,1.54-1.41,2.09-2.96,2.05-5.01-.25-12.12-.43-24.25-.57-36.37-.07-6.46-.01-12.93-.01-19.39-.1,0-.19,0-.29-.01-3.94,23.43-7.88,46.85-11.96,71.08Zm224.26-113.2h0c-7.38.01-14.76.06-22.14-.02-2.53-.03-2.92,1.34-2.91,3.42,0,2.04.25,3.41,2.86,3.42,4.1.02,8.2.36,12.3.62,8.82.56,17.65,1.07,26.47,1.79,6.23.5,6.23.46,7.67-5.67.73-3.09-.31-3.64-3.05-3.6-7.06.12-14.13.04-21.19.04Zm-131.23,10.95s0,.09,0,.14c15.12.91,30.24,1.8,45.36,2.73,7.35.45,14.71.93,22.06,1.42,11.44.76,22.89,1.51,34.33,2.31,2.31.16,3.78-.16,3.8-3.1.02-2.86-1.07-3.56-3.74-3.54-14.02.1-28.03.05-42.05.05-19.91,0-39.83,0-59.74,0Zm129.36,11.3c-6.64,0-13.28.03-19.93-.02-1.93-.01-3.33.32-3.24,2.72.07,2.02-.32,4.06,2.78,4.2,4.94.22,9.87.71,14.8,1.04,7.14.48,14.32.67,21.43,1.44,7.08.77,6.95,1.02,7.14-5.89.07-2.59-.71-3.59-3.38-3.54-6.53.13-13.07.04-19.61.04Zm-135.58-43.59s.07.08.11.12c13.79.69,27.58,1.38,41.36,2.09,8.74.45,17.47.91,26.21,1.41,13.36.76,26.72,1.55,40.08,2.31,2.06.12,3.98.33,4-2.86.02-3.02-1.6-3.12-3.83-3.09-6.86.07-13.72.02-20.58.02-29.12,0-58.24,0-87.36,0Zm10.19,43.59c-.04.06-.08.11-.12.17,6.93.48,13.85.99,20.78,1.43,11.56.72,23.13,1.34,34.69,2.09,14.29.93,28.57,1.95,42.85,2.98,2.19.16,3.38-.41,3.33-2.9-.04-2.25-.2-3.81-3.16-3.81-32.79.07-65.58.04-98.37.04Zm-.69-22.25l-.08.34c15.67.91,31.34,1.78,47.01,2.73,8.31.5,16.61,1.2,24.92,1.7,9.05.55,18.11.93,27.16,1.47,2.33.14,3.16-.7,3.23-3.04.08-2.9-1.47-3.22-3.78-3.22-17.31.04-34.62.02-51.93.02-15.51,0-31.02,0-46.52,0Zm-1.29-10.79c-.02.12-.04.24-.06.36,12.73.69,25.45,1.37,38.18,2.07,8.21.45,16.42.93,24.62,1.42,12.41.75,24.82,1.57,37.24,2.28,3.24.18,3.83-.7,3.48-3.92-.31-2.83-2.42-2.19-4.07-2.19-24.59-.03-49.18-.02-73.77-.02-8.54,0-17.08,0-25.62,0Zm-38.68,68.11c4.16-7.64,7.97-14.67,11.81-21.68.88-1.61.21-2.06-1.34-2.06-7.17.02-14.33.04-21.5.04-1.55,0-2.24.43-1.31,2.05,4.02,7.02,8.02,14.05,12.34,21.65Zm204.04-23.69v-.04c-3.36,0-6.73.04-10.09-.01-2.13-.03-3.01.46-1.75,2.71,3.44,6.14,6.82,12.31,10.11,18.53,1.14,2.15,1.88,1.74,2.88-.03,3.5-6.23,6.99-12.46,10.57-18.64,1.23-2.12.32-2.54-1.62-2.52-3.36.03-6.73,0-10.09,0Zm306.76,195.82c1.69-41.98,3.38-83.95,5.07-125.93-1.3,13-2.19,26.01-3.12,39.02-.63,8.82-1.31,17.63-1.99,26.44-.97,12.69-1.96,25.38-2.93,38.08-.59,7.67,1.67,15.01,2.97,22.39Zm-153.77-19.61h75.57c-6.4-5.08-12.98-7.13-19.66-6.36-18.8,2.16-37.61,4.28-55.91,6.36Zm-512.16.07c-11.26-1.28-22.59-2.94-33.98-3.74-9.39-.66-18.59-3.11-28.18-2.28-5.58.48-9.92,2.69-14.59,6.02h76.75Zm414.08-51.7c.05-.06.09-.12.14-.18-13.26-.49-26.51-.98-39.77-1.45-8.11-.29-16.21-.52-24.32-.82-16.52-.6-33.05-1.21-49.57-1.82-1.54-.06-3.08-.08-3.08,2.12,0,2.2,1.57,2.15,3.09,2.15,37.84,0,75.68,0,113.52,0Zm147.59,44.71s.03-.1.05-.15c-20.03,0-40.06,0-60.09,0-4.66,0-4.62,0-5.14,4.62-.22,1.95.41,2.73,2.44,2.49,7.84-.9,15.69-1.72,23.53-2.59,13.07-1.45,26.14-2.91,39.21-4.37Zm-612.26-.15c0,.06,0,.11.01.17,12.87,1.38,25.73,2.75,38.6,4.16,8.05.88,16.1,1.83,24.15,2.75.99.11,1.9.1,2.4-.99,1.31-2.86-.67-6.08-3.8-6.08-20.45-.01-40.9,0-61.36,0Zm-105.25-99.85s-.06.03-.09.04c1.54,42.4,3.08,84.8,4.64,127.94.82-7.98,2.83-15.11,2.55-22.48-.2-5.25-.82-10.49-1.15-15.74-.71-11.03-1.3-22.06-2.04-33.08-1.26-18.89-2.6-37.78-3.91-56.68Zm827.95-57.75c.26-.09.51-.18.77-.27-.37-10.5-.67-21-1.16-31.5-.08-1.67.68-4.28-.95-4.87-1.37-.49-2.88,1.73-4.28,2.79q-6.76,5.11-3.49,12.83c3.01,7.02,6.07,14.01,9.11,21.01Zm-617.03,45.05c-.08,0-.15,0-.23,0,0,19.72,0,39.45,0,59.17,0,.42.03.84.02,1.27-.03,1.47.82,2.32,2.02,2.94,1.33.68,1.85-.54,2.64-1.14,1.79-1.36,2.22-3.14,1.98-5.31-2.17-18.97-4.29-37.95-6.43-56.93Zm317.35-52.82c-.16-.11-.32-.21-.48-.32-3.88,6.83-7.77,13.65-11.64,20.48-.41.73-.29,1.4.32,2,3.77,3.74,7.53,7.49,11.81,11.75v-33.92Zm-230.72,32.43c.33.24.67.48,1,.72,3.47-3.62,6.92-7.26,10.42-10.85,1.07-1.1.61-2.06,0-3.11-1.74-3.01-3.44-6.03-5.17-9.04-2.11-3.67-4.22-7.34-6.72-11.67-.5,11.92.51,22.92.47,33.95Zm253.39,60.9s0-.07.01-.11c-31.51,0-63.03,0-94.54,0-1.49,0-3.14-.17-3.08,2.09.07,2.32,1.8,1.93,3.23,1.86,12.1-.55,24.19-1.2,36.29-1.69,19.36-.78,38.73-1.45,58.09-2.16Zm-266.81-47.58c.22.12.44.25.65.37,3.55-3.53,7.12-7.02,10.6-10.61.44-.45.56-1.37.55-2.06-.14-10.07.38-20.16-.99-30.29-3.61,14.2-7.21,28.39-10.82,42.59Zm262.39,45.95c.04-.08.07-.16.11-.23-11.89-.48-23.78-.96-35.67-1.45-6.63-.27-13.26-.56-19.9-.87-11.36-.53-22.73-1.08-34.09-1.6-1.48-.07-3.15-.22-3.13,2.04.02,2.19,1.65,2.11,3.15,2.11,29.84,0,59.68,0,89.53,0ZM122.46,433.75c-.44,13.24-.86,25.61-1.27,37.97,3.93-8.97,7.42-18,10.93-27.02.45-1.15.71-2.17-.43-3.12-2.9-2.41-5.75-4.87-9.23-7.83Zm530.9,31.9c-.17.05-.34.1-.51.15,0,7.04.68,14.17-.17,21.11-1.07,8.66,1.17,15.26,8.45,20.11,1.11.74,1.79,2.1,3.52,2.72-3.85-15.05-7.57-29.57-11.29-44.1Zm-.33,60.98s0-.07,0-.11c-11.15-.53-22.31-1.02-33.45-1.61-13.36-.71-26.71-1.52-40.06-2.25-.94-.05-2.47-.42-2.27,1.27.13,1.11.23,2.69,2.07,2.68.42,0,.84.03,1.26.03,24.15,0,48.3,0,72.44,0Zm-407.22,100.54v.19c13.18,0,26.36.07,39.54-.02,8.81-.06,7.38,1.54,7.64-7.75.02-.71.27-1.63-.44-2.05-.9-.53-1.56.37-2.22.8-2.13,1.36-4.21,2.8-6.32,4.2-.97.64-1.94,1.22-3.16,1.33-11.68,1.09-23.35,2.2-35.03,3.31Zm579.64.18c0-.07,0-.13,0-.2-9.6-.89-19.24-1.55-28.8-2.8-3.13-.41-6.47.23-9.47-1.82-5.95-4.07-6-3.92-9.19,2.53-.83,1.68-.51,2.3,1.34,2.3,15.37-.01,30.74,0,46.11,0Zm111.58,15.56c-1.06.61-.88,1.31-.93,1.9-.48,5.64-.88,11.3-1.43,16.93-.61,6.28-.67,6.27,5.29,4.22,4.48-1.54,4.45-1.53,2.83-5.79-.71-1.86-1.29-3.78-1.91-5.67-1.27-3.84-2.54-7.68-3.84-11.6Zm-588.74-220.94l.76.31c5.54-5.21,11.08-10.42,17.07-16.06-4.38-.28-8.04-.52-11.7-.73-1.19-.07-2.41-.05-2.76,1.46-1.14,5-2.25,10.01-3.37,15.01Zm294.76,106.43c-.04-.09-.08-.18-.12-.27-20.96,0-41.92,0-62.88.01-1.43,0-3.33-.23-3.1,2.04.21,2.04,1.93,1.09,3.03,1.04,10.2-.43,20.4-.92,30.59-1.38,10.82-.49,21.64-.96,32.47-1.44Zm-220.37-91.66c.07.23.14.46.21.7,6.92-.45,13.85-.89,20.77-1.35,2.3-.15,1.49-1.99,1.09-2.8-1.01-2.06.6-5.22-2.63-6.29-.16-.05-.4.11-.58.21-6.29,3.17-12.58,6.35-18.87,9.53Zm224.59,18.12c-6.89-1.92-13.78-3.85-20.67-5.75-.68-.19-1.75-.58-1.89.39-.36,2.6-.51,5.25-.05,7.86.15.87,1.1.98,1.83.82,6.8-1.45,13.76-1.7,20.77-3.32Zm2.88-19.27c.04-.4.07-.8.11-1.21-5.08-1.87-10.16-3.75-15.25-5.61q-7.16-2.62-8.35,4.84c-.02.1-.06.2-.08.31-.29,1.34.04,1.76,1.6,1.73,7.32-.13,14.65-.06,21.97-.06Zm-225.53,19.19c6.94,1.76,13.89,1.96,20.66,3.39,1.22.26,2.16-.2,2.09-1.61-.11-2.2-.3-4.41-.54-6.6-.14-1.26-1.08-1.07-1.92-.83-6.77,1.88-13.54,3.77-20.3,5.65Zm-2.37-9.87c7.99.67,15,1.27,22.02,1.85,1.03.08,2.44.37,2.37-1.2-.1-2.29-.52-4.58-.94-6.85-.26-1.43-1.39-1.01-2.26-.73-6.79,2.2-13.56,4.42-21.19,6.92Zm-2.12-18.22c.1.26.2.52.31.78,5.29-.67,10.58-1.36,15.88-1.99q7.04-.84,4.47-7.62c-.07-.2-.16-.39-.21-.59-.3-1.34-1.12-1.37-2.12-.81-6.11,3.41-12.22,6.82-18.33,10.24Zm231.41.73c.06-.2.11-.4.17-.61-4.76-2.64-9.51-5.27-14.27-7.91q-6.34-3.52-8.07,3.63c-.02.1-.07.2-.1.3-.52,1.61.05,2.38,1.75,2.48,1.99.11,3.98.28,5.97.5,4.86.52,9.71,1.07,14.56,1.61Zm-235.4-10.29c.08.19.15.38.23.57,5.33-.83,10.65-1.73,16-2.48,7.59-1.07,7.8-1.42,4.25-8.34-.05-.09-.09-.19-.13-.29-.37-.97-.89-1.3-1.91-.68-6.13,3.76-12.29,7.48-18.44,11.21Zm232.12,27.87c.02-.15.03-.3.05-.46-6.88-2.23-13.76-4.45-20.65-6.68-1.39-.45-1.99.11-1.92,1.51.12,2.48-1.98,5.09.4,7.44.1.1.41.02.62,0,7.17-.6,14.34-1.21,21.5-1.81Zm7.15-27.34c.02-.15.05-.31.07-.46-4.66-2.84-9.31-5.69-13.98-8.52q-6.48-3.93-8.68,3.39c-.06.2-.11.41-.17.61-.38,1.21.13,1.73,1.33,1.9,7.15,1.01,14.29,2.05,21.43,3.09Zm-520.47,225.72c-.23,0-.45,0-.68-.01-1.46,4.92-2.9,9.84-4.39,14.75-2.13,7.03-2.06,7.16,5.13,9.17.1.03.2.07.29.11,1.24.52,1.48-.11,1.4-1.18-.59-7.61-1.17-15.23-1.76-22.84Zm590.59-221.88c-1.95-5.28-3.6-9.69-5.2-14.13-.5-1.39-1.38-1.9-2.86-1.92-3.67-.05-7.26.51-11.51.88,6.56,5.09,12.68,9.83,19.57,15.17Zm-458.58,115.88l-.37.51c22.14,16.49,44.28,32.98,66.42,49.46.31-.42.61-.84.92-1.25-22.32-16.24-44.64-32.48-66.96-48.72Zm470.88,48.58l.86,1.33c21.79-16.26,43.59-32.51,65.38-48.77-.12-.17-.25-.34-.37-.51-21.96,15.98-43.91,31.96-65.87,47.94Zm5.47-136.58c-.3-.08-.61-.15-.91-.23-2.22,2.81-3.83,5.95-3.86,9.62-.08,11.15-.03,22.29-.03,33.44.06,0,.12,0,.18,0,1.54-14.28,3.08-28.56,4.62-42.83Zm-410.67,41.79h.34c0-10.5.06-21-.03-31.49-.03-4.02-1.42-7.59-4.89-10.32,1.53,13.94,3.05,27.87,4.58,41.81Zm295.16,7.01c-4.34.14-8.52-.71-12.72-.94-11.68-.64-23.34-1.49-35.01-2.26-1.3-.09-2.99-.75-3.09,1.46-.08,1.9,1.48,1.74,2.72,1.74,16.03.01,32.07,0,48.1,0Zm-507.02-54.62c-.1,0-.19-.02-.29-.03-1.84,10.23-3.67,20.46-5.55,30.68-.3,1.64.21,2.31,1.9,2.41,2.14.13,2.76-.94,2.82-2.83.35-10.08.74-20.16,1.11-30.24Zm836.48-.02c-.06,0-.12,0-.18,0-1.08,9.91-2.19,19.82-3.23,29.74-.16,1.53-.49,3.23,2.06,3.34,2.55.11,2.66-1.39,2.58-3.24-.42-9.95-.82-19.9-1.22-29.85Zm-4.33,21.12c.13,0,.25,0,.38-.01.37-3.23.77-6.45,1.12-9.68.72-6.57,1.43-13.14,2.14-19.71.18-1.66-.4-2.54-2.26-2.54-1.77,0-2.47.71-2.41,2.45.36,9.83.69,19.66,1.03,29.49Zm-838.19,1.82l.18.03c1.87-10.33,3.74-20.67,5.59-31,.23-1.29.39-2.59-1.55-2.74-1.87-.15-2.97.28-3.04,2.49-.33,10.41-.78,20.82-1.18,31.23Zm507.92,33.39s.05-.07.08-.11c-14.35,0-28.69,0-43.04.02-1.1,0-2.66-.27-2.63,1.44.04,1.78,1.58,1.3,2.67,1.24,14.31-.85,28.61-1.72,42.92-2.59Zm-5.65-15.62s-.04-.06-.07-.09c-2.31-.18-4.61-.36-6.92-.53-10.08-.72-20.15-1.46-30.24-2.13-1.07-.07-2.65-.41-2.69,1.31-.05,1.74,1.52,1.43,2.61,1.43,12.44.02,24.87.02,37.31.02Zm-234.01-68.6c.19.21.39.43.58.64,6.27-2.99,12.54-5.98,19.43-9.26-2.89-.63-5.03-1.08-7.17-1.58-1.21-.29-2.19-.15-3.14.8-3.19,3.18-6.46,6.27-9.71,9.39Zm-97.02,133.15l-.35.49c15.34,11.12,30.67,22.24,46.01,33.37.22-.31.45-.63.67-.94-15.44-10.97-30.89-21.94-46.33-32.91Zm494.7,4.29c-.13-.18-.26-.36-.4-.54-13.58,9.67-27.15,19.34-40.73,29.02.23.31.45.62.68.93,13.48-9.8,26.96-19.6,40.44-29.4Zm-333.58-90.76c-3.38,6.22-6.54,12.03-9.7,17.85,2.15-1.39,3.66-3.45,5.62-4.87,4.43-3.22,5.12-7.48,4.08-12.98Zm304.55-23.49c.49-2.86,2.79-5.39,1.79-7.96-1.37-3.53-3.72-6.68-5.65-9.99.33,6.19,1.49,12.09,3.86,17.95Zm-117.71,40.68c-2.97-5.42-5.95-10.84-9.08-16.55-2.87,9.11,4.56,12.07,9.08,16.55Zm299.14,177.23c.2,0,.41,0,.61,0,.48-5.52.95-11.03,1.45-16.54.11-1.19-.06-2.16-1.49-2.25-1.14-.07-1.45.75-1.41,1.67.26,5.71.55,11.42.84,17.13Zm-590.8-240.49l.43.03c1.85-2.65,3.77-5.26,5.52-7.97.48-.75,1.98-1.83.82-2.54-1.2-.73-3.04-.83-4.28.54-.33.36-.46.94-.58,1.44-.66,2.83-1.28,5.66-1.91,8.5Zm343.74-3.7c-4.36-3.58-7.56-9.58-14.88-7.33,5.04,2.48,9.96,4.91,14.88,7.33Z"/>
  </g>
</svg>