<?xml version="1.0" encoding="UTF-8"?>
<svg id="Layer_2" data-name="Layer 2" xmlns="http://www.w3.org/2000/svg" viewBox="0 0 1073.18 1073.18">
  <defs>
    <style>
      .cls-1 {
        fill: #fff;
        stroke: #fff;
        stroke-miterlimit: 10;
        stroke-width: 3px;
      }

      .cls-2 {
        fill: none;
      }
    </style>
  </defs>
  <g id="Layer_1-2" data-name="Layer 1">
    <g>
      <path class="cls-1" d="m558.9,775.26c24.16,2.94,48.31,5.98,72.46,8.94,25.42,3.11,50.86,6.14,76.28,9.26,24.16,2.96,48.31,5.99,72.46,8.99.68.08,1.41.09,1.84,1.13-.95.97-2.25.66-3.4.67-30.07.25-60.15.21-90.22.8-26.59.52-53.18.21-79.77.74-16.37.33-32.74.46-49.11.47l-11.27.11c-29.6.71-59.22.27-88.82.83-23.45.44-46.91.07-70.35.63-26.01.63-52.02.17-78.02.74-17.65.38-35.29.3-52.94.62-3.44.06-5.04-1.1-5.74-4.46-1-4.76-2.43-9.43-3.7-14.13-.74-2.72,0-3.96,3.08-4.27,19.37-1.92,38.73-4.07,58.09-6.07,19.02-1.96,38.06-3.8,57.08-5.78,18.79-1.95,37.57-4.03,56.35-6.03,13.83-1.47,27.65-3.05,41.51-4.24,8.14-.7,16.14,1.39,24.19,2.3,16.12,1.83,32.21,3.95,48.31,5.94,4.6.57,9.23.99,13.8,1.74l7.86,1.04Zm1.43-417.95c39.56-7.97,79.11-15.98,118.66-23.95,48.2-9.71,96.4-19.36,144.59-29.15,3.13-.64,4.15.11,4.38,3.24,1.49,20.46,3.02,40.91,4.73,61.35,2.01,23.98,1.82,47.98.91,71.99-.05,1.28-.06,2.55-.07,3.83-.3,30.06-.35,60.13-.99,90.18-.38,17.87-.03,35.75-.7,53.61-.61,16.48.09,32.98-.69,49.43-.77,16.12.41,32.27-1.15,48.35-1.46,14.99-3.1,29.96-4.66,44.95-1.21,11.64-2.47,23.27-3.59,34.92-.25,2.58-1.2,3.28-3.81,2.92-29.51-4.06-59.03-8.03-88.56-11.97-28.49-3.81-57-7.52-85.49-11.34-28.38-3.8-56.75-7.65-85.11-11.56l-7.94-.98c-15.05-1.96-30.08-4.14-45.14-6.06-3-.38-3.71-1.64-3.7-4.48.08-116.54.09-233.08.04-349.63,0-2.97.79-4.15,3.9-4.73,14.93-2.8,29.78-6.02,44.7-8.86l9.69-2.06Zm2.36-92.44c72.58.82,145.16.39,217.74.69,2.66.01,5.3.06,8.21.87-1.93,1.79-4.26,1.61-6.28,2-43.72,8.38-87.46,16.7-131.19,25.01-30.07,5.71-60.14,11.39-90.22,17.07l-9.66,1.88c-27.2,5.28-54.42,10.46-81.68,15.47-6.01,1.1-11.95-.95-17.88-1.74-20.91-2.8-41.78-5.82-62.67-8.78-22.26-3.16-44.51-6.37-66.78-9.5-22.38-3.15-44.77-6.23-67.15-9.35-2.99-.42-5.95-.97-8.95-1.3-2.11-.23-2.88-1.36-2.57-3.28,1.46-9.15,2.96-18.3,4.45-27.45.29-1.78,1.28-2.56,3.12-2.47,1.97.1,3.95.02,5.92.02,40.18.09,80.36-.12,120.54.33,57.36.64,114.72.1,172.08.45l12.97.08Zm268.92,199.44c1.49-21.47.1-44.35,1.4-67.18.12-2.17-.53-3.18-2.86-3.25-3.82-.12-7.63-.53-11.45-.81-14.79-1.09-29.59-2.19-44.39-3.24-11.22-.8-22.44-1.53-33.65-2.33-14.8-1.06-29.59-2.18-44.39-3.24-11.22-.8-22.44-1.53-33.65-2.33-14.8-1.06-29.59-2.16-44.39-3.25-11.79-.87-23.58-1.76-35.37-2.6-7.86-.56-15.73-1.02-23.59-1.6-2.42-.18-3.34.79-3.3,3.19.09,4.99.15,9.98-.03,14.97-.09,2.58.93,3.95,3.18,5.1,26.67,13.6,53.3,27.28,79.94,40.94,62.78,32.19,125.55,64.38,188.33,96.57,3.51,1.8,3.57,1.77,3.55-2.05-.11-22.51,1.17-45,.64-68.88Zm-276.32,242.97c0,2.44.11,4.88-.03,7.31-.13,2.37.52,3.44,3.14,2.97,3.53-.63,7.11-.98,10.67-1.45,18.15-2.42,36.29-4.83,54.44-7.27,18.14-2.44,36.28-4.93,54.42-7.39,16.42-2.23,32.84-4.44,49.26-6.67,16.08-2.18,32.15-4.36,48.22-6.54,16.76-2.27,33.52-4.61,50.29-6.78,2.51-.32,3.28-1.25,3.28-3.73,0-7.89.38-15.78.45-23.66.35-36.89.8-73.78,1.52-110.67.07-3.81-.02-3.82-3.21-2-87.8,50.07-175.56,100.21-263.47,150.08-6.68,3.79-11.35,7.46-8.98,15.79Zm272.42-170.11c-.4-.22-.79-.45-1.2-.66-26.85-13.78-53.7-27.55-80.56-41.33-61.97-31.79-123.94-63.58-185.92-95.36-3.8-1.95-4.01-1.85-4.02,1.97-.05,46.78-.06,93.57-.16,140.35,0,3.16.99,4.29,4.23,4.15,13.91-.58,27.83-.96,41.75-1.41,22.5-.73,45-1.45,67.51-2.18,20.3-.66,40.59-1.37,60.89-1.99,26.22-.8,52.44-1.45,78.65-2.34,6.25-.21,12.49-.65,18.81-1.21Zm-.69,2.93c-1.32-.93-2.27-.64-3.16-.61-13.45.42-26.91.87-40.36,1.3-23.66.75-47.32,1.49-70.98,2.25-11.83.38-23.65.83-35.48,1.21-24.13.77-48.25,1.52-72.38,2.27-15.19.48-30.39.99-45.58,1.38-2.49.06-3.21,1.12-3.19,3.39.04,5.45-.42,10.91-.44,16.34-.19,41.09-.13,82.18-.13,123.27,0,3.7.39,3.89,3.7,2.01,16.74-9.53,33.48-19.07,50.22-28.62,60.19-34.33,120.39-68.66,180.58-102.99,12.29-7.01,24.58-14,37.2-21.2Zm5.38-152.64c-.3-4.68-.53-8.96-.85-13.24-1.1-14.68-2.24-29.35-3.36-44.02-.54-7.05-1.12-14.09-1.64-21.14-.2-2.7-1.02-3.71-4.17-3.07-85.91,17.4-171.85,34.68-257.79,51.99-8.69,1.75-8.61,1.8-8.61,10.75,0,2.63.53,4.01,3.57,4.17,9.84.54,19.66,1.33,29.49,2.06,14.45,1.07,28.9,2.22,43.35,3.25,14.69,1.05,29.39,1.93,44.08,2.99,17.69,1.27,35.37,2.7,53.07,3.97,14.8,1.06,29.62,1.93,44.43,3,17.69,1.27,35.38,2.69,53.07,3.96,5.47.39,5.48.27,5.37-4.67Zm-5.73,295.53c-.84.06-1.54.06-2.23.16-24.24,3.26-48.47,6.5-72.7,9.8-30.09,4.09-60.17,8.24-90.25,12.33-32.5,4.42-65.01,8.79-97.51,13.2-8.91,1.21-8.8,1.25-8.75,10.05.02,2.81,1.12,3.9,3.78,4.24,23.21,3.02,46.42,6.1,69.63,9.2,31.13,4.16,62.26,8.34,93.38,12.54,31.7,4.27,63.4,8.56,95.09,12.9,2.26.31,3.23-.41,3.42-2.65.39-4.5.9-8.99,1.36-13.49,2.25-22.01,4.48-44.03,6.8-66.03.2-1.94-.22-2.66-2.02-2.25Zm-322.87-223.46h-.1c0,27.97,0,55.94,0,83.91,0,4.76.02,4.87,4.87,4.72,13.8-.41,27.6-.93,41.4-1.35,4.56-.14,4.54-.05,4.6-4.72.32-24.71-.18-49.42.49-74.14.6-22.27.1-44.56.19-66.85.01-2.66-.81-4.2-3.25-5.43-14.81-7.48-29.55-15.12-44.31-22.69-3.85-1.97-3.88-1.95-3.88,2.29,0,28.09,0,56.17,0,84.26Zm-.11,177.64c-.14,0-.29,0-.43,0,0,27.74,0,55.48,0,83.22,0,4.21.03,4.24,3.84,2.08,14.43-8.2,28.8-16.5,43.31-24.57,3.02-1.68,4.18-3.53,4.18-7.06-.11-45.96-.04-91.92-.02-137.89,0-.81-.03-1.63-.01-2.44.04-1.98-.95-2.63-2.85-2.47-3,.25-6.02.43-9.03.52-11.48.36-22.96.76-34.45.97-3.63.07-4.61,1.59-4.6,5.11.13,27.5.07,55.01.07,82.51Zm-246.52-371.44c-.03.14-.06.27-.09.41.5.2.98.45,1.5.6,67.97,19.54,135.94,39.07,203.91,58.6,4.1,1.18,4.21,1.16,4.05-3.01-.66-17.72-1.44-35.44-2.06-53.16-.1-2.82-1.77-2.77-3.72-2.79-15.66-.15-31.33-.43-46.99-.46-51.19-.11-102.37-.13-153.56-.18-1.01,0-2.03,0-3.04,0Zm521.45,1.85c-49.32-.65-98.54-.14-147.76-.93-22.98-.37-45.97-.1-68.96-.11-5.26,0-5.2,0-5.28,5.42-.18,11.25.47,22.51-.39,33.75-.3,3.93-.12,4.26,3.82,3.51,17.43-3.29,34.85-6.61,52.27-9.93,40.87-7.8,81.75-15.61,122.62-23.4,14.56-2.78,29.13-5.54,43.69-8.3Zm-268.16-1.05v-.13c-13.8,0-27.61.03-41.41-.03-2.29-.01-3.22.45-3.09,3.12.89,17.7,1.64,35.41,2.25,53.13.1,3,.64,4.04,3.92,3.4,26.37-5.14,52.76-10.19,79.17-15.1,3.05-.57,4.03-1.77,4-4.77-.12-11.83-.11-23.66.03-35.48.04-3.13-.88-4.25-4.15-4.21-13.57.16-27.14.07-40.72.07Zm-245.58,540.53c20.25-.07,40.45.47,60.65-.14,25.41-.77,50.85-.08,76.27-.71,19.15-.47,38.32-.24,57.47-.32,5.48-.02,5.62-.2,5.87-5.56.5-10.42.91-20.85,1.7-31.25.26-3.4-1.29-3.61-3.57-2.94-7.59,2.22-15.39,3.39-23.1,4.98-48.38,9.94-96.77,19.81-145.15,29.71-10.05,2.06-20.09,4.15-30.14,6.23Zm187.83-482.36c-.01-.17-.02-.33-.03-.5-.32-.14-.62-.32-.95-.42-52.15-14.98-104.3-29.95-156.45-44.93-14.04-4.03-28.07-8.08-42.09-12.19-2.23-.65-3.55-.72-3.96,2.23-1.1,7.79-2.49,15.55-3.83,23.31-.38,2.21.1,3.48,2.59,3.77,5.18.61,10.33,1.4,15.49,2.12,19.27,2.69,38.55,5.38,57.82,8.09,16.98,2.39,33.94,4.84,50.92,7.23,19.27,2.72,38.54,5.4,57.82,8.1,7.56,1.06,15.12,2.12,22.68,3.18Zm314.34,477.74c-15.98-1.99-31.43-3.92-46.88-5.82-17.82-2.19-35.66-4.32-53.48-6.53-17.71-2.2-35.4-4.48-53.11-6.68-18.17-2.26-36.35-4.38-54.5-6.76-3.15-.41-3.9.59-3.86,3.43.1,6.38.01,12.77,0,19.15,0,5.45,0,5.5,5.32,5.41,21.47-.34,42.95.09,64.42-.54,24.95-.73,49.91-.09,74.87-.67,21-.49,42.03-.25,63.04-.36,1.21,0,2.48.33,4.19-.62Zm-213.18-12.13c0-3.83,0-7.66,0-11.49,0-1.69-.5-2.9-2.48-3.1-4.03-.41-8.06-.92-12.08-1.42-16.1-1.98-32.2-3.97-48.29-5.96-6.21-.77-12.41-1.63-18.63-2.31-1.54-.17-3.78-.95-3.96,1.9-.73,11.8-1.41,23.6-2.12,35.4-.13,2.07.93,2.55,2.79,2.46,17.17-.84,34.35-.43,51.53-.58,9.86-.08,19.73.05,29.59-.42,2.66-.13,3.79-.98,3.69-3.7-.14-3.59-.03-7.19-.02-10.79Zm-104.19-22.68c.05-.1.1-.19.15-.29-4.37.46-8.74.93-13.12,1.38-12.1,1.25-24.21,2.48-36.31,3.74-14.64,1.53-29.27,3.09-43.9,4.61-12.1,1.26-24.21,2.48-36.31,3.74-14.87,1.54-29.73,3.09-44.6,4.64-7.61.8-15.2,1.68-22.81,2.4-2.56.24-3.02,1.34-2.34,3.64,1.21,4.11,2.32,8.26,3.27,12.44.6,2.61,1.5,3.53,4.51,2.91,36.89-7.65,73.81-15.12,110.72-22.66,26.92-5.5,53.82-11.03,80.74-16.55Zm58.9-396.74c-.04.25-.08.49-.13.74,14.71,7.56,29.43,15.11,44.12,22.72,2.01,1.04,2.67.59,2.64-1.61-.06-4.98-.13-9.96.03-14.93.1-3.08-1.26-3.95-4.15-4.06-5.66-.21-11.3-.78-16.95-1.16-8.52-.58-17.04-1.13-25.56-1.69Zm-.92,353.05c.06.15.13.31.19.46,3.43-.46,6.85-.92,10.28-1.38,10.9-1.46,21.8-2.93,32.7-4.35,2.6-.34,3.83-1.44,3.71-4.28-.21-4.51-.11-9.04-.03-13.56.05-2.72-.69-3.31-3.19-1.85-8.31,4.85-16.71,9.54-25.07,14.3-6.2,3.54-12.39,7.09-18.59,10.64Zm3.18-355.1c0,.22,0,.44,0,.66,5.88.38,11.76.73,17.63,1.13,6,.42,11.99,1.12,18,1.24,2.78.06,6.33,2.24,8.18-.22,1.69-2.24.36-5.84.56-8.83.15-2.21-.71-2.81-2.89-2.36-13.82,2.84-27.66,5.6-41.49,8.38Zm-.2,356.77c0,.16,0,.31,0,.47.41.12.82.3,1.24.36,11.37,1.48,22.74,2.88,34.1,4.43q8.97,1.23,8.55-7.91c-.12-2.54-1.19-3.26-3.49-2.9-3.09.47-6.19.89-9.28,1.31-10.37,1.42-20.74,2.83-31.11,4.25Z"/>
      <path class="cls-1" d="m443.29,547.96c0,60,0,120.01,0,180.01,0,5.31.01,5.48-5.08,6.09-15.76,1.88-31.54,3.62-47.32,5.41-17.5,1.98-35,3.96-52.51,5.93-13.47,1.52-26.95,3.01-40.43,4.51-13.24,1.48-26.49,2.97-39.73,4.45-4.03.45-8.08.76-12.09,1.33-2.25.32-2.95-.77-3.14-2.64-.08-.81-.07-1.62-.08-2.43-.26-36.32-.26-72.65-.86-108.96-.44-26.57-.19-53.15-.74-79.72-.49-23.44-.09-46.88-.67-70.3-.63-25.07-.08-50.14-.72-75.19-.6-23.56-.35-47.11-.6-70.67-.04-3.48-.26-6.95-.4-10.43-.09-2.43.93-3.24,3.42-2.85,34.13,5.26,68.27,10.48,102.42,15.66,31.28,4.74,62.57,9.44,93.87,14.07,2.96.44,4.1,1.56,4.04,4.69-.19,9.51-.05,19.03-.05,28.55,0,50.83,0,101.66,0,152.49h.68Zm-2.83.78c-66.74-71.39-133.04-142.33-199.9-213.86-.07,9.11.13,17.3.35,25.52.66,24.47.2,48.95.66,73.43.68,35.38.7,70.77,1,106.15.04,5.12.16,5.29,5.24,5.38,12.3.21,24.6.31,36.89.58,25.29.54,50.58.85,75.87,1.48,21.58.54,43.17.63,64.75.95,2.32.03,4.63.3,6.95.36,2.51.06,5.02.01,8.18.01Zm.32,183.49c-66.24-61.71-131.84-122.81-198.15-184.59-.04,11.58.12,21.88.37,32.2.62,25.75.2,51.51.72,77.27.62,30.97.64,61.95.91,92.93,0,.7.03,1.39.03,2.09-.01,1.64.74,2.26,2.4,2.06,6.21-.74,12.43-1.39,18.65-2.1,17.61-2.01,35.22-4.07,52.84-6.05,17.39-1.95,34.78-3.81,52.17-5.76,18.08-2.02,36.15-4.09,54.22-6.16,5-.57,10-1.2,15.83-1.9Zm-198.97-398.24c66.79,71.45,132.89,142.17,199.65,213.6,0-2.18,0-3.31,0-4.44-.02-57.8-.04-115.61-.07-173.41,0-5.55-.02-5.51-5.59-6.34-29.8-4.46-59.61-8.92-89.4-13.44-34.48-5.23-68.95-10.52-104.59-15.96Zm2.6,213.22c65.56,61.07,130.98,122.02,196.67,183.21.91-2.05.58-3.68.58-5.24-.05-56.41-.12-112.83-.19-169.24,0-5.82,0-5.85-5.73-5.88-24.84-.13-49.68-.77-74.51-1.34-30.17-.69-60.35-1.05-90.53-1.49-8.57-.12-17.15-.02-26.29-.02Z"/>
    </g>
    <rect class="cls-2" width="1073.18" height="1073.18"/>
  </g>
</svg>